<svg width="109" height="31" viewBox="0 0 109 31"  xmlns="http://www.w3.org/2000/svg">
<path d="M46 11.9L46.8966 10.19C47.3448 10.64 48.0621 11 48.7793 11C49.2276 11 49.4966 10.91 49.5862 10.73C49.6759 10.64 49.7655 10.46 49.7655 10.19C49.7655 10.01 49.6759 9.82999 49.4966 9.73999C49.3172 9.55999 48.9586 9.46999 48.4207 9.28999L47.9724 9.19999C47.6138 9.10999 47.1655 8.92999 46.8069 8.56999C46.3586 8.11999 46.3586 7.57999 46.3586 7.12999C46.3586 6.13999 46.7172 5.50999 47.0759 5.14999C47.5241 4.69999 48.1517 4.42999 49.1379 4.42999C49.9448 4.42999 50.8414 4.69999 51.6483 5.05999L50.8414 6.67999C50.2138 6.13999 49.7655 6.13999 49.4966 6.13999C49.3172 6.13999 49.0483 6.22999 48.7793 6.40999C48.6897 6.49999 48.6 6.67999 48.6 6.85999C48.6 7.03999 48.6 7.12999 48.6897 7.21999C48.7793 7.30999 48.869 7.39999 49.4069 7.57999L50.0345 7.75999C50.5724 7.93999 51.1103 8.11999 51.469 8.56999C51.9172 9.01999 52.0069 9.46999 52.0069 10.01C52.0069 10.73 51.8276 11.45 51.2 12.08C50.4828 12.71 49.6759 12.8 48.7793 12.8C48.2414 12.8 47.7931 12.71 47.1655 12.53C47.0759 12.53 46.5379 12.26 46 11.9ZM53.0828 12.62V3.79999H55.0552V7.84999C55.2345 7.66999 55.4138 7.48999 55.6828 7.30999C56.0414 7.12999 56.4897 7.03999 56.7586 7.03999C57.5655 7.03999 58.0138 7.30999 58.3724 7.57999C58.8207 8.02999 58.9103 8.56999 58.9103 9.10999V12.53H56.9379V9.82999C56.9379 9.46999 56.9379 9.01999 56.669 8.74999C56.4897 8.56999 56.2207 8.47999 56.0414 8.47999C55.8621 8.47999 55.5931 8.47999 55.3241 8.74999C55.1448 8.92999 54.9655 9.19999 54.9655 9.64999V12.53H53.0828V12.62ZM65.7241 10.1V10.28H61.6897C61.6897 10.55 61.7793 11 62.0483 11.18C62.1379 11.27 62.4069 11.45 62.8552 11.45C62.9448 11.45 63.2138 11.45 63.4828 11.27C63.5724 11.18 63.7517 11.09 63.8414 10.91H65.7241C65.6345 11.18 65.4552 11.63 65.0966 11.99C64.5586 12.44 63.931 12.8 62.7655 12.8C62.0483 12.8 61.1517 12.62 60.5241 11.99C60.1655 11.63 59.7172 11 59.7172 9.91999C59.7172 9.01999 60.0759 8.29999 60.5241 7.84999C60.9724 7.39999 61.6897 7.03999 62.7655 7.03999C63.3931 7.03999 64.2 7.12999 64.8276 7.75999C65.6345 8.47999 65.7241 9.46999 65.7241 10.1ZM61.6897 9.19999H63.931C63.8414 9.01999 63.7517 8.74999 63.5724 8.65999C63.3034 8.29999 62.9448 8.29999 62.7655 8.29999C62.4069 8.29999 62.2276 8.38999 61.9586 8.56999C61.869 8.74999 61.7793 8.92999 61.6897 9.19999ZM66.8 3.79999H68.7724V12.62H66.8V3.79999ZM70.0276 3.79999H72V12.62H70.0276V3.79999Z"/>
<path d="M53.4543 26.9316L52.7432 25.0368H48.7136L48.0025 26.9316H45L49.2667 15.8H52.4272L56.6148 26.9316H53.4543ZM49.5827 22.9053H52.0321L50.7679 19.2737L49.5827 22.9053ZM62.5407 24.5631V26.7737C61.8296 27.0895 61.2765 27.1684 60.7235 27.1684C59.3012 27.1684 58.3531 26.5368 57.8 26.0631C57.0889 25.3526 56.6938 24.4053 56.6938 23.3C56.6938 22.1947 57.1679 21.1684 57.879 20.3789C58.5901 19.7474 59.6173 19.2737 60.8815 19.2737C61.3556 19.2737 61.9086 19.3526 62.6198 19.6684V21.8789C62.3037 21.6421 61.8296 21.4053 61.2765 21.4053C60.6444 21.4053 60.2494 21.6421 60.0123 21.9579C59.6173 22.3526 59.4593 22.8263 59.4593 23.221C59.4593 23.6158 59.6173 24.0895 59.9333 24.4842C60.1704 24.721 60.6444 25.0368 61.2765 25.0368C61.5926 25.0368 62.0667 24.9579 62.5407 24.5631ZM69.0198 24.5631V26.7737C68.3086 27.0895 67.7556 27.1684 67.2025 27.1684C65.7802 27.1684 64.8321 26.5368 64.279 26.0631C63.5679 25.3526 63.1728 24.4053 63.1728 23.3C63.1728 22.1947 63.6469 21.1684 64.358 20.3789C65.0691 19.7474 66.0963 19.2737 67.3605 19.2737C67.8346 19.2737 68.3877 19.3526 69.0988 19.6684V21.8789C68.7827 21.6421 68.3086 21.4053 67.7556 21.4053C67.1235 21.4053 66.7284 21.6421 66.4914 21.9579C66.0963 22.3526 65.9383 22.8263 65.9383 23.221C65.9383 23.6158 66.0963 24.0895 66.4123 24.4842C66.6494 24.721 67.1235 25.0368 67.7556 25.0368C68.0716 25.0368 68.5457 24.9579 69.0198 24.5631ZM69.9679 19.5105H72.6543V23.6947C72.6543 24.0105 72.7333 24.4842 73.0494 24.8C73.2864 25.0368 73.6815 25.1158 73.9975 25.1158C74.3136 25.1158 74.6296 25.1158 74.9457 24.8C75.2617 24.4842 75.3407 24.0895 75.3407 23.7737V19.5895H78.0272V24.2474C78.0272 24.8789 77.9482 25.5895 77.3161 26.221C76.3679 27.1684 75.1037 27.2474 74.0765 27.2474C72.9704 27.2474 71.6272 27.1684 70.758 26.1421C70.2049 25.5105 70.0469 24.8789 70.0469 24.1684V19.5105H69.9679ZM81.7407 26.221V30.8H79.0543V19.5105H81.7407V20.3C82.2148 19.7474 82.9259 19.1947 84.0321 19.1947C85.1383 19.1947 86.0864 19.6684 86.6395 20.3C87.2716 20.9316 87.7457 21.8789 87.7457 23.221C87.7457 24.4842 87.2716 25.5105 86.5605 26.221C85.7704 27.0105 84.7432 27.2474 84.0321 27.2474C83.558 27.2474 82.5309 27.0895 81.7407 26.221ZM83.321 21.4842C82.8469 21.4842 82.4519 21.6421 82.1358 21.9579C81.8198 22.2737 81.5827 22.7474 81.5827 23.221C81.5827 23.6947 81.8198 24.0895 82.1358 24.4053C82.4519 24.721 82.8469 24.8789 83.321 24.8789C83.7951 24.8789 84.1901 24.721 84.5062 24.4053C84.8222 24.0895 85.0593 23.6947 85.0593 23.221C85.0593 22.8263 84.9012 22.3526 84.5062 21.9579C84.1901 21.721 83.7951 21.4842 83.321 21.4842ZM92.7235 21.4842C92.3284 21.4842 91.8543 21.721 91.5383 21.9579C91.2222 22.2737 90.9852 22.7474 90.9852 23.1421C90.9852 23.6158 91.2222 24.0105 91.5383 24.3263C91.8543 24.6421 92.2494 24.8 92.7235 24.8C93.1185 24.8 93.5926 24.6421 93.9086 24.3263C94.2247 24.0105 94.4617 23.5368 94.4617 23.1421C94.4617 22.7474 94.3037 22.2737 93.9086 21.9579C93.5926 21.721 93.1185 21.4842 92.7235 21.4842ZM97.1481 23.221C97.1481 24.2474 96.8321 25.1947 96.042 25.9842C95.0938 26.9316 93.9086 27.2474 92.7235 27.2474C91.6173 27.2474 90.4321 27.0105 89.4049 25.9842C88.6148 25.1947 88.2988 24.2474 88.2988 23.221C88.2988 21.8789 88.9309 21.0105 89.4049 20.4579C90.037 19.8263 91.0642 19.1947 92.7235 19.1947C94.3827 19.1947 95.4099 19.8263 96.042 20.4579C96.5951 21.0105 97.1481 21.8789 97.1481 23.221ZM97.8593 26.9316V19.4316H100.546V20.6158C100.783 20.1421 101.178 19.7474 101.573 19.5895C101.968 19.3526 102.442 19.2737 102.916 19.2737C102.995 19.2737 103.074 19.2737 103.469 19.2737V21.8C103.311 21.721 102.995 21.5631 102.363 21.5631C102.047 21.5631 101.573 21.6421 101.178 21.9579C100.625 22.5105 100.546 23.3 100.546 23.6947V26.9316H97.8593ZM109 21.6421H107.499V26.9316H104.812V21.6421H103.943V19.4316H104.812V16.9842H107.499V19.4316H109V21.6421Z" />
<path d="M25.6588 29.4L25.6589 28.9V29.4H26.103L26.1554 28.9589L26.829 23.2813L26.8312 23.2798C26.9497 23.1967 27.1192 23.0777 27.3235 22.9337C27.7321 22.6456 28.2803 22.2572 28.8383 21.8559C29.3956 21.4552 29.9652 21.0398 30.4156 20.6985C30.6403 20.5281 30.8389 20.3736 30.9927 20.2471C31.126 20.1374 31.2781 20.0076 31.3589 19.9L31.4237 19.8135L31.4471 19.7079C33.6158 9.89685 25.9796 0.5 16.1589 0.5C6.33557 0.5 -1.29693 9.89904 0.870406 19.8068L0.901713 19.95L1.0053 20.0536C1.07008 20.1183 1.19918 20.221 1.33619 20.3273C1.48595 20.4435 1.68128 20.5912 1.90484 20.7583C2.35238 21.0928 2.91975 21.5097 3.47646 21.9163C4.03344 22.3231 4.5809 22.7204 4.98904 23.0159C5.19313 23.1637 5.36243 23.2861 5.48074 23.3715L5.48869 23.3773L6.16246 28.9599L6.21557 29.4H6.65886V28.9L6.65894 29.4H6.65918H6.65957H6.66013H6.66085H6.66172H6.66275H6.66393H6.66527H6.66677H6.66842H6.67022H6.67218H6.67429H6.67655H6.67896H6.68153H6.68424H6.68711H6.69012H6.69328H6.69659H6.70005H6.70365H6.7074H6.71129H6.71533H6.71952H6.72385H6.72832H6.73293H6.73769H6.74259H6.74763H6.7528H6.75812H6.76358H6.76918H6.77491H6.78078H6.78679H6.79294H6.79922H6.80563H6.81218H6.81887H6.82568H6.83263H6.83971H6.84693H6.85427H6.86175H6.86935H6.87708H6.88495H6.89294H6.90105H6.9093H6.91767H6.92617H6.93479H6.94353H6.9524H6.9614H6.97051H6.97975H6.98911H6.99859H7.00819H7.01791H7.02775H7.03771H7.04779H7.05798H7.06829H7.07872H7.08926H7.09992H7.11069H7.12158H7.13258H7.14369H7.15492H7.16625H7.1777H7.18926H7.20093H7.2127H7.22459H7.23658H7.24869H7.26089H7.27321H7.28563H7.29815H7.31079H7.32352H7.33636H7.3493H7.36234H7.37548H7.38873H7.40208H7.41552H7.42907H7.44271H7.45645H7.47029H7.48423H7.49826H7.51239H7.52661H7.54093H7.55535H7.56985H7.58445H7.59914H7.61392H7.6288H7.64376H7.65882H7.67396H7.68919H7.70452H7.71992H7.73542H7.751H7.76667H7.78242H7.79826H7.81418H7.83019H7.84627H7.86245H7.8787H7.89503H7.91144H7.92794H7.94451H7.96116H7.97789H7.9947H8.01159H8.02855H8.04559H8.0627H8.07989H8.09715H8.11448H8.13189H8.14937H8.16692H8.18455H8.20224H8.22001H8.23784H8.25574H8.27371H8.29175H8.30986H8.32803H8.34627H8.36457H8.38294H8.40137H8.41987H8.43843H8.45705H8.47573H8.49447H8.51328H8.53214H8.55107H8.57005H8.58909H8.60819H8.62735H8.64656H8.66583H8.68516H8.70454H8.72397H8.74346H8.763H8.78259H8.80224H8.82193H8.84168H8.86148H8.88132H8.90122H8.92116H8.94115H8.96119H8.98128H9.00141H9.02158H9.04181H9.06207H9.08238H9.10273H9.12313H9.14357H9.16404H9.18456H9.20512H9.22572H9.24636H9.26704H9.28775H9.3085H9.32929H9.35011H9.37097H9.39187H9.4128H9.43376H9.45475H9.47578H9.49684H9.51793H9.53906H9.56021H9.58139H9.6026H9.62384H9.64511H9.6664H9.68773H9.70907H9.73045H9.75184H9.77327H9.79471H9.81618H9.83767H9.85919H9.88072H9.90228H9.92386H9.94545H9.96707H9.9887H10.0104H10.032H10.0537H10.0754H10.0971H10.1189H10.1406H10.1624H10.1841H10.2059H10.2277H10.2495H10.2714H10.2932H10.315H10.3369H10.3587H10.3806H10.4025H10.4244H10.4462H10.4681H10.49H10.5119H10.5338H10.5558H10.5777H10.5996H10.6215H10.6434H10.6653H10.6872H10.7092H10.7311H10.753H10.7749H10.7968H10.8187H10.8406H10.8625H10.8844H10.9063H10.9281H10.95H10.9719H10.9937H11.0156H11.0374H11.0592H11.081H11.1028H11.1246H11.1464H11.1682H11.1899H11.2116H11.2334H11.2551H11.2768H11.2984H11.3201H11.3417H11.3633H11.3849H11.4065H11.4281H11.4496H11.4711H11.4926H11.5141H11.5356H11.557H11.5784H11.5998H11.6211H11.6424H11.6637H11.685H11.7063H11.7275H11.7487H11.7698H11.7909H11.812H11.8331H11.8541H11.8751H11.8961H11.917H11.9379H11.9588H11.9796H12.0004H12.0212H12.0419H12.0626H12.0832H12.1038H12.1244H12.1449H12.1654H12.1859H12.2063H12.2266H12.247H12.2672H12.2875H12.3076H12.3278H12.3479H12.3679H12.3879H12.4079H12.4278H12.4476H12.4674H12.4872H12.5069H12.5265H12.5462H12.5657H12.5852H12.6046H12.624H12.6434H12.6626H12.6819H12.701H12.7201H12.7392H12.7582H12.7771H12.796H12.8148H12.8336H12.8523H12.8709H12.8895H12.908H12.9264H12.9448H12.9631H12.9814H12.9995H13.0177H13.0357H13.0537H13.0716H13.0895H13.1072H13.1249H13.1426H13.1601H13.1776H13.195H13.2124H13.2297H13.2469H13.264H13.281H13.298H13.3149H13.3317H13.3485H13.3652H13.3817H13.3982H13.4147H13.431H13.4473H13.4635H13.4796H13.4956H13.5115H13.5274H13.5432H13.5588H13.5744H13.5899H13.6054H13.6207H13.636H13.6511H13.6662H13.6812H13.6961H13.7109H13.7256H13.7402H13.7547H13.7691H13.7835H13.7977H13.8118H13.8259H13.8399H13.8537H13.8675H13.8811H13.8947H13.9082H13.9215H13.9348H13.9479H13.961H13.974H13.9868H13.9996H14.0122H14.0248H14.0372H14.0495H14.0618H14.0739H14.0859H14.0978H14.1096H14.1213H14.1329H14.1443H14.1557H14.1669H14.1781H14.1891H14.2H14.2108H14.2215H14.232H14.2425H14.2528H14.263H14.2731H14.2831H14.293H14.3027H14.3123H14.3218H14.3312H14.3379C14.4197 29.4792 14.5296 29.5731 14.669 29.666C15.0012 29.8875 15.4962 30.1 16.1589 30.1C16.8215 30.1 17.3165 29.8875 17.6487 29.666C17.7881 29.5731 17.898 29.4792 17.9798 29.4H17.9865H17.9959H18.0054H18.015H18.0248H18.0346H18.0446H18.0547H18.0649H18.0752H18.0857H18.0963H18.1069H18.1177H18.1286H18.1396H18.1508H18.162H18.1734H18.1848H18.1964H18.2081H18.2199H18.2318H18.2438H18.2559H18.2682H18.2805H18.2929H18.3055H18.3181H18.3309H18.3437H18.3567H18.3698H18.3829H18.3962H18.4096H18.423H18.4366H18.4502H18.464H18.4779H18.4918H18.5059H18.52H18.5342H18.5486H18.563H18.5775H18.5921H18.6069H18.6217H18.6365H18.6515H18.6666H18.6818H18.697H18.7123H18.7278H18.7433H18.7589H18.7746H18.7903H18.8062H18.8221H18.8381H18.8542H18.8704H18.8867H18.903H18.9195H18.936H18.9526H18.9692H18.986H19.0028H19.0197H19.0367H19.0537H19.0708H19.088H19.1053H19.1227H19.1401H19.1576H19.1751H19.1928H19.2105H19.2283H19.2461H19.264H19.282H19.3001H19.3182H19.3364H19.3546H19.3729H19.3913H19.4097H19.4282H19.4468H19.4655H19.4841H19.5029H19.5217H19.5406H19.5595H19.5785H19.5976H19.6167H19.6358H19.6551H19.6743H19.6937H19.7131H19.7325H19.752H19.7716H19.7912H19.8108H19.8305H19.8503H19.8701H19.8899H19.9098H19.9298H19.9498H19.9698H19.9899H20.0101H20.0303H20.0505H20.0708H20.0911H20.1114H20.1318H20.1523H20.1728H20.1933H20.2139H20.2345H20.2551H20.2758H20.2965H20.3173H20.3381H20.3589H20.3798H20.4007H20.4216H20.4426H20.4636H20.4846H20.5057H20.5268H20.5479H20.5691H20.5902H20.6115H20.6327H20.654H20.6753H20.6966H20.718H20.7393H20.7607H20.7822H20.8036H20.8251H20.8466H20.8681H20.8896H20.9112H20.9328H20.9544H20.976H20.9976H21.0193H21.041H21.0626H21.0843H21.1061H21.1278H21.1496H21.1713H21.1931H21.2149H21.2367H21.2585H21.2803H21.3021H21.324H21.3458H21.3677H21.3896H21.4114H21.4333H21.4552H21.4771H21.499H21.5209H21.5428H21.5647H21.5866H21.6086H21.6305H21.6524H21.6743H21.6962H21.7181H21.74H21.762H21.7839H21.8058H21.8277H21.8496H21.8715H21.8934H21.9152H21.9371H21.959H21.9808H22.0027H22.0245H22.0464H22.0682H22.09H22.1118H22.1336H22.1553H22.1771H22.1989H22.2206H22.2423H22.264H22.2857H22.3074H22.329H22.3506H22.3723H22.3939H22.4154H22.437H22.4585H22.48H22.5015H22.523H22.5444H22.5659H22.5873H22.6086H22.63H22.6513H22.6726H22.6939H22.7151H22.7363H22.7575H22.7787H22.7998H22.8209H22.8419H22.863H22.884H22.9049H22.9258H22.9467H22.9676H22.9884H23.0092H23.03H23.0507H23.0714H23.092H23.1126H23.1331H23.1537H23.1741H23.1946H23.215H23.2353H23.2556H23.2759H23.2961H23.3163H23.3364H23.3565H23.3766H23.3966H23.4165H23.4364H23.4562H23.476H23.4958H23.5155H23.5351H23.5547H23.5743H23.5937H23.6132H23.6326H23.6519H23.6711H23.6904H23.7095H23.7286H23.7477H23.7666H23.7856H23.8044H23.8232H23.842H23.8607H23.8793H23.8978H23.9163H23.9348H23.9531H23.9714H23.9897H24.0079H24.026H24.044H24.062H24.0799H24.0977H24.1155H24.1332H24.1508H24.1683H24.1858H24.2032H24.2206H24.2378H24.255H24.2721H24.2892H24.3061H24.323H24.3398H24.3565H24.3732H24.3898H24.4063H24.4227H24.439H24.4553H24.4714H24.4875H24.5035H24.5195H24.5353H24.551H24.5667H24.5823H24.5978H24.6132H24.6285H24.6437H24.6589H24.6739H24.6889H24.7038H24.7186H24.7333H24.7479H24.7624H24.7768H24.7911H24.8053H24.8195H24.8335H24.8474H24.8613H24.875H24.8886H24.9022H24.9156H24.929H24.9422H24.9554H24.9684H24.9814H24.9942H25.0069H25.0196H25.0321H25.0445H25.0568H25.069H25.0811H25.0931H25.105H25.1168H25.1285H25.14H25.1515H25.1628H25.174H25.1851H25.1961H25.207H25.2178H25.2285H25.239H25.2494H25.2597H25.2699H25.28H25.29H25.2998H25.3095H25.3191H25.3286H25.338H25.3472H25.3563H25.3653H25.3742H25.3829H25.3915H25.4H25.4084H25.4167H25.4248H25.4328H25.4406H25.4484H25.456H25.4634H25.4708H25.478H25.4851H25.492H25.4988H25.5055H25.5121H25.5185H25.5248H25.5309H25.5369H25.5428H25.5485H25.5541H25.5596H25.5649H25.5701H25.5751H25.58H25.5848H25.5894H25.5939H25.5982H25.6024H25.6064H25.6103H25.6141H25.6177H25.6211H25.6244H25.6276H25.6306H25.6335H25.6362H25.6387H25.6412H25.6434H25.6455H25.6475H25.6493H25.6509H25.6524H25.6538H25.655H25.656H25.6569H25.6576H25.6581H25.6585H25.6588Z" fill="#DD1D21" stroke="white"/>
<path d="M16.1589 20.7L15.4589 3.90001C14.6589 3.70001 12.6589 3.90001 11.5589 4.80001L14.7589 20.8L10.4589 5.40001C9.45894 5.40001 7.35893 7.20001 7.15893 7.70001L13.4589 21.4L6.35893 8.90001C5.65893 9.20001 4.15893 12 4.35893 12.4L12.2589 22.2L4.15893 13.8C4.15893 13.8 3.05893 15.4 3.75893 18.2L8.35893 21.6L8.95894 26.2H14.5589C14.5589 26.2 15.4589 27.1 16.1589 27.1C16.8589 27.1 17.7589 26.2 17.7589 26.2H23.3589L23.9589 21.6L28.5589 18.2C29.2589 15.4 28.1589 13.8 28.1589 13.8L20.0589 22.2L27.9589 12.4C28.1589 12.1 26.6589 9.20001 25.9589 8.90001L18.8589 21.4L25.1589 7.70001C24.9589 7.20001 22.9589 5.40001 21.8589 5.40001L17.5589 20.8L20.7589 4.70001C19.6589 3.90001 17.6589 3.70001 16.8589 3.80001L16.1589 20.7Z" fill="#FBCE07"/>
</svg>
